<?xml version="1.0" standalone="no"?>
<!DOCTYPE svg PUBLIC "-//W3C//DTD SVG 20010904//EN"
 "http://www.w3.org/TR/2001/REC-SVG-20010904/DTD/svg10.dtd">
<svg version="1.0" xmlns="http://www.w3.org/2000/svg"
 width="310.000000pt" height="310.000000pt" viewBox="0 0 310.000000 310.000000"
 preserveAspectRatio="xMidYMid meet">

<g transform="translate(0.000000,310.000000) scale(0.100000,-0.100000)"
fill="#000000" stroke="none">
<path d="M0 1550 l0 -1550 1550 0 1550 0 0 1550 0 1550 -1550 0 -1550 0 0
-1550z m1770 1215 c260 -50 459 -154 646 -340 240 -238 365 -534 366 -865 2
-592 -402 -1092 -982 -1217 -119 -25 -381 -25 -500 0 -246 53 -456 169 -630
347 -231 235 -351 530 -351 860 -1 468 260 893 679 1104 147 74 270 108 472
130 57 6 220 -4 300 -19z"/>
<path d="M1460 2544 c-14 -2 -56 -9 -95 -15 -355 -57 -681 -359 -776 -718 -91
-350 2 -700 256 -957 190 -193 435 -295 705 -295 236 1 433 69 617 213 263
206 410 551 374 873 -21 181 -69 315 -165 459 -143 214 -370 369 -620 422 -72
15 -250 26 -296 18z m355 -516 c3 -13 4 -165 3 -338 l-3 -315 -105 0 -105 0
-3 325 c-1 179 0 330 3 337 3 9 33 13 104 13 96 0 101 -1 106 -22z m-317 -345
l-3 -308 -105 0 -105 0 -3 281 c-2 222 0 284 11 292 11 10 143 38 190 41 16 1
17 -18 15 -306z m537 248 l90 -17 0 -270 0 -269 -100 0 -100 0 -3 288 c-2 226
0 287 10 286 7 0 54 -8 103 -18z m-855 -306 l0 -256 -102 3 -103 3 -3 237 -2
236 72 12 c40 7 78 14 83 15 6 2 20 4 33 4 l22 1 0 -255z m948 -462 l-3 -108
-260 0 -260 0 -3 108 -3 107 266 0 266 0 -3 -107z"/>
</g>
</svg>
